<mxfile host="app.diagrams.net" modified="2024-04-23T03:31:37.621Z" agent="Mozilla/5.0 (Windows NT 10.0; Win64; x64) AppleWebKit/537.36 (KHTML, like Gecko) Chrome/121.0.0.0 Safari/537.36 OPR/107.0.0.0" etag="asd_QDsXpxQ7fV_SKpfh" version="24.2.8" type="device">
  <diagram id="ox6sSI12CpcXQyzZn87E" name="Page-1">
    <mxGraphModel dx="1161" dy="664" grid="1" gridSize="10" guides="1" tooltips="1" connect="1" arrows="1" fold="1" page="1" pageScale="1" pageWidth="827" pageHeight="1169" math="0" shadow="0">
      <root>
        <mxCell id="0" />
        <mxCell id="1" parent="0" />
        <mxCell id="d2eWooW74yrMKREjg4Wz-47" value="" style="verticalLabelPosition=bottom;verticalAlign=top;html=1;shape=mxgraph.basic.rect;fillColor2=none;strokeWidth=1;size=20;indent=5;fillColor=none;" parent="1" vertex="1">
          <mxGeometry x="55" y="90" width="765" height="650" as="geometry" />
        </mxCell>
        <mxCell id="d2eWooW74yrMKREjg4Wz-25" style="edgeStyle=orthogonalEdgeStyle;rounded=0;orthogonalLoop=1;jettySize=auto;html=1;exitX=0.5;exitY=0.5;exitDx=0;exitDy=0;exitPerimeter=0;" parent="1" source="d2eWooW74yrMKREjg4Wz-28" target="d2eWooW74yrMKREjg4Wz-37" edge="1">
          <mxGeometry relative="1" as="geometry" />
        </mxCell>
        <mxCell id="d2eWooW74yrMKREjg4Wz-26" style="edgeStyle=orthogonalEdgeStyle;rounded=0;orthogonalLoop=1;jettySize=auto;html=1;exitX=0.5;exitY=0.5;exitDx=0;exitDy=0;exitPerimeter=0;" parent="1" source="d2eWooW74yrMKREjg4Wz-28" target="d2eWooW74yrMKREjg4Wz-40" edge="1">
          <mxGeometry relative="1" as="geometry" />
        </mxCell>
        <mxCell id="d2eWooW74yrMKREjg4Wz-28" value="Alumno" style="shape=umlActor;verticalLabelPosition=bottom;verticalAlign=top;html=1;" parent="1" vertex="1">
          <mxGeometry x="110" y="220" width="30" height="60" as="geometry" />
        </mxCell>
        <mxCell id="d2eWooW74yrMKREjg4Wz-29" style="edgeStyle=orthogonalEdgeStyle;rounded=0;orthogonalLoop=1;jettySize=auto;html=1;exitX=0.5;exitY=0.5;exitDx=0;exitDy=0;exitPerimeter=0;entryX=1;entryY=0.5;entryDx=0;entryDy=0;" parent="1" source="d2eWooW74yrMKREjg4Wz-31" target="d2eWooW74yrMKREjg4Wz-43" edge="1">
          <mxGeometry relative="1" as="geometry" />
        </mxCell>
        <mxCell id="d2eWooW74yrMKREjg4Wz-30" style="edgeStyle=orthogonalEdgeStyle;rounded=0;orthogonalLoop=1;jettySize=auto;html=1;exitX=0.5;exitY=0.5;exitDx=0;exitDy=0;exitPerimeter=0;entryX=1;entryY=0.6;entryDx=0;entryDy=0;entryPerimeter=0;" parent="1" source="d2eWooW74yrMKREjg4Wz-31" target="d2eWooW74yrMKREjg4Wz-39" edge="1">
          <mxGeometry relative="1" as="geometry" />
        </mxCell>
        <mxCell id="d2eWooW74yrMKREjg4Wz-31" value="Admin" style="shape=umlActor;verticalLabelPosition=bottom;verticalAlign=top;html=1;" parent="1" vertex="1">
          <mxGeometry x="1070" y="210" width="30" height="60" as="geometry" />
        </mxCell>
        <mxCell id="d2eWooW74yrMKREjg4Wz-35" value="Profesor" style="shape=umlActor;verticalLabelPosition=bottom;verticalAlign=top;html=1;" parent="1" vertex="1">
          <mxGeometry x="110" y="560" width="30" height="60" as="geometry" />
        </mxCell>
        <mxCell id="d2eWooW74yrMKREjg4Wz-36" value="Generar QR" style="ellipse;whiteSpace=wrap;html=1;" parent="1" vertex="1">
          <mxGeometry x="270" y="650" width="140" height="70" as="geometry" />
        </mxCell>
        <mxCell id="d2eWooW74yrMKREjg4Wz-37" value="Registrar asistencia" style="ellipse;whiteSpace=wrap;html=1;" parent="1" vertex="1">
          <mxGeometry x="440" y="130" width="140" height="70" as="geometry" />
        </mxCell>
        <mxCell id="d2eWooW74yrMKREjg4Wz-38" value="Ver perfil" style="ellipse;whiteSpace=wrap;html=1;" parent="1" vertex="1">
          <mxGeometry x="662.5" y="400" width="140" height="70" as="geometry" />
        </mxCell>
        <mxCell id="d2eWooW74yrMKREjg4Wz-39" value="Gestionar matriculas" style="ellipse;whiteSpace=wrap;html=1;" parent="1" vertex="1">
          <mxGeometry x="870" y="200" width="140" height="70" as="geometry" />
        </mxCell>
        <mxCell id="d2eWooW74yrMKREjg4Wz-40" value="Ver secciones" style="ellipse;whiteSpace=wrap;html=1;" parent="1" vertex="1">
          <mxGeometry x="370" y="420" width="140" height="70" as="geometry" />
        </mxCell>
        <mxCell id="d2eWooW74yrMKREjg4Wz-41" value="Modificar asistencias" style="ellipse;whiteSpace=wrap;html=1;" parent="1" vertex="1">
          <mxGeometry x="620" y="650" width="140" height="70" as="geometry" />
        </mxCell>
        <mxCell id="d2eWooW74yrMKREjg4Wz-43" value="Crear cuentas" style="ellipse;whiteSpace=wrap;html=1;" parent="1" vertex="1">
          <mxGeometry x="870" y="120" width="140" height="70" as="geometry" />
        </mxCell>
        <mxCell id="d2eWooW74yrMKREjg4Wz-44" style="edgeStyle=orthogonalEdgeStyle;rounded=0;orthogonalLoop=1;jettySize=auto;html=1;exitX=0.5;exitY=1;exitDx=0;exitDy=0;" parent="1" source="d2eWooW74yrMKREjg4Wz-39" target="d2eWooW74yrMKREjg4Wz-39" edge="1">
          <mxGeometry relative="1" as="geometry" />
        </mxCell>
        <mxCell id="d2eWooW74yrMKREjg4Wz-48" value="App" style="text;html=1;strokeColor=none;fillColor=none;align=center;verticalAlign=middle;whiteSpace=wrap;rounded=0;" parent="1" vertex="1">
          <mxGeometry x="80" y="100" width="60" height="30" as="geometry" />
        </mxCell>
        <mxCell id="XXfU96lnd1s2tMMeXdj5-1" value="Gestionar usuarios" style="ellipse;whiteSpace=wrap;html=1;" vertex="1" parent="1">
          <mxGeometry x="870" y="280" width="140" height="70" as="geometry" />
        </mxCell>
        <mxCell id="XXfU96lnd1s2tMMeXdj5-2" style="edgeStyle=orthogonalEdgeStyle;rounded=0;orthogonalLoop=1;jettySize=auto;html=1;exitX=0.5;exitY=0.5;exitDx=0;exitDy=0;exitPerimeter=0;entryX=1;entryY=0.5;entryDx=0;entryDy=0;" edge="1" parent="1" source="d2eWooW74yrMKREjg4Wz-31" target="XXfU96lnd1s2tMMeXdj5-1">
          <mxGeometry relative="1" as="geometry">
            <mxPoint x="1095" y="250" as="sourcePoint" />
            <mxPoint x="1010" y="302" as="targetPoint" />
          </mxGeometry>
        </mxCell>
        <mxCell id="XXfU96lnd1s2tMMeXdj5-5" value="" style="edgeStyle=orthogonalEdgeStyle;rounded=0;orthogonalLoop=1;jettySize=auto;html=1;exitX=0.5;exitY=0.5;exitDx=0;exitDy=0;exitPerimeter=0;" edge="1" parent="1" source="d2eWooW74yrMKREjg4Wz-28" target="XXfU96lnd1s2tMMeXdj5-3">
          <mxGeometry relative="1" as="geometry">
            <Array as="points" />
            <mxPoint x="125" y="190" as="sourcePoint" />
            <mxPoint x="250" y="385" as="targetPoint" />
          </mxGeometry>
        </mxCell>
        <mxCell id="XXfU96lnd1s2tMMeXdj5-3" value="Iniciar sesion" style="ellipse;whiteSpace=wrap;html=1;" vertex="1" parent="1">
          <mxGeometry x="150" y="370" width="140" height="70" as="geometry" />
        </mxCell>
        <mxCell id="XXfU96lnd1s2tMMeXdj5-9" style="edgeStyle=orthogonalEdgeStyle;rounded=0;orthogonalLoop=1;jettySize=auto;html=1;exitX=0.5;exitY=0.5;exitDx=0;exitDy=0;exitPerimeter=0;" edge="1" parent="1" source="d2eWooW74yrMKREjg4Wz-35" target="XXfU96lnd1s2tMMeXdj5-3">
          <mxGeometry relative="1" as="geometry">
            <Array as="points" />
            <mxPoint x="150" y="590" as="sourcePoint" />
            <mxPoint x="339" y="436" as="targetPoint" />
          </mxGeometry>
        </mxCell>
        <mxCell id="XXfU96lnd1s2tMMeXdj5-11" style="edgeStyle=orthogonalEdgeStyle;rounded=0;orthogonalLoop=1;jettySize=auto;html=1;exitX=0.5;exitY=0.5;exitDx=0;exitDy=0;exitPerimeter=0;" edge="1" parent="1" source="d2eWooW74yrMKREjg4Wz-35" target="d2eWooW74yrMKREjg4Wz-40">
          <mxGeometry relative="1" as="geometry">
            <Array as="points" />
            <mxPoint x="135" y="600" as="sourcePoint" />
            <mxPoint x="274" y="430" as="targetPoint" />
          </mxGeometry>
        </mxCell>
        <mxCell id="XXfU96lnd1s2tMMeXdj5-12" style="edgeStyle=orthogonalEdgeStyle;rounded=0;orthogonalLoop=1;jettySize=auto;html=1;exitX=0.5;exitY=0.5;exitDx=0;exitDy=0;exitPerimeter=0;" edge="1" parent="1" source="d2eWooW74yrMKREjg4Wz-28" target="d2eWooW74yrMKREjg4Wz-38">
          <mxGeometry relative="1" as="geometry">
            <mxPoint x="135" y="200" as="sourcePoint" />
            <mxPoint x="424" y="360" as="targetPoint" />
          </mxGeometry>
        </mxCell>
        <mxCell id="XXfU96lnd1s2tMMeXdj5-13" style="edgeStyle=orthogonalEdgeStyle;rounded=0;orthogonalLoop=1;jettySize=auto;html=1;exitX=0.5;exitY=0.5;exitDx=0;exitDy=0;exitPerimeter=0;" edge="1" parent="1" source="d2eWooW74yrMKREjg4Wz-35" target="d2eWooW74yrMKREjg4Wz-38">
          <mxGeometry relative="1" as="geometry">
            <Array as="points" />
            <mxPoint x="135" y="600" as="sourcePoint" />
            <mxPoint x="424" y="430" as="targetPoint" />
          </mxGeometry>
        </mxCell>
        <mxCell id="XXfU96lnd1s2tMMeXdj5-14" value="Cerrar sesion" style="ellipse;whiteSpace=wrap;html=1;" vertex="1" parent="1">
          <mxGeometry x="230" y="450" width="140" height="70" as="geometry" />
        </mxCell>
        <mxCell id="XXfU96lnd1s2tMMeXdj5-15" value="" style="edgeStyle=orthogonalEdgeStyle;rounded=0;orthogonalLoop=1;jettySize=auto;html=1;exitX=0.5;exitY=0.5;exitDx=0;exitDy=0;exitPerimeter=0;" edge="1" parent="1" source="d2eWooW74yrMKREjg4Wz-28" target="XXfU96lnd1s2tMMeXdj5-14">
          <mxGeometry relative="1" as="geometry">
            <Array as="points" />
            <mxPoint x="135" y="200" as="sourcePoint" />
            <mxPoint x="250" y="310" as="targetPoint" />
          </mxGeometry>
        </mxCell>
        <mxCell id="XXfU96lnd1s2tMMeXdj5-16" style="edgeStyle=orthogonalEdgeStyle;rounded=0;orthogonalLoop=1;jettySize=auto;html=1;exitX=0.5;exitY=0.5;exitDx=0;exitDy=0;exitPerimeter=0;entryX=0.5;entryY=1;entryDx=0;entryDy=0;" edge="1" parent="1" source="d2eWooW74yrMKREjg4Wz-35" target="XXfU96lnd1s2tMMeXdj5-14">
          <mxGeometry relative="1" as="geometry">
            <Array as="points" />
            <mxPoint x="135" y="600" as="sourcePoint" />
            <mxPoint x="620" y="430" as="targetPoint" />
          </mxGeometry>
        </mxCell>
        <mxCell id="XXfU96lnd1s2tMMeXdj5-17" style="edgeStyle=orthogonalEdgeStyle;rounded=0;orthogonalLoop=1;jettySize=auto;html=1;exitX=0.5;exitY=0.5;exitDx=0;exitDy=0;exitPerimeter=0;" edge="1" parent="1" source="d2eWooW74yrMKREjg4Wz-35" target="d2eWooW74yrMKREjg4Wz-36">
          <mxGeometry relative="1" as="geometry">
            <Array as="points" />
            <mxPoint x="135" y="600" as="sourcePoint" />
            <mxPoint x="250" y="380" as="targetPoint" />
          </mxGeometry>
        </mxCell>
        <mxCell id="XXfU96lnd1s2tMMeXdj5-18" value="Ver mis asistencias" style="ellipse;whiteSpace=wrap;html=1;" vertex="1" parent="1">
          <mxGeometry x="280" y="130" width="140" height="70" as="geometry" />
        </mxCell>
        <mxCell id="XXfU96lnd1s2tMMeXdj5-19" style="edgeStyle=orthogonalEdgeStyle;rounded=0;orthogonalLoop=1;jettySize=auto;html=1;exitX=0.5;exitY=0.5;exitDx=0;exitDy=0;exitPerimeter=0;entryX=0.5;entryY=1;entryDx=0;entryDy=0;" edge="1" parent="1" source="d2eWooW74yrMKREjg4Wz-28" target="XXfU96lnd1s2tMMeXdj5-18">
          <mxGeometry relative="1" as="geometry">
            <mxPoint x="135" y="260" as="sourcePoint" />
            <mxPoint x="520" y="210" as="targetPoint" />
          </mxGeometry>
        </mxCell>
        <mxCell id="XXfU96lnd1s2tMMeXdj5-20" value="Ver sesiones" style="ellipse;whiteSpace=wrap;html=1;" vertex="1" parent="1">
          <mxGeometry x="512.5" y="400" width="140" height="70" as="geometry" />
        </mxCell>
        <mxCell id="XXfU96lnd1s2tMMeXdj5-21" style="edgeStyle=orthogonalEdgeStyle;rounded=0;orthogonalLoop=1;jettySize=auto;html=1;exitX=0.5;exitY=0.5;exitDx=0;exitDy=0;exitPerimeter=0;entryX=0.5;entryY=0;entryDx=0;entryDy=0;" edge="1" parent="1" source="d2eWooW74yrMKREjg4Wz-28" target="XXfU96lnd1s2tMMeXdj5-20">
          <mxGeometry relative="1" as="geometry">
            <mxPoint x="135" y="260" as="sourcePoint" />
            <mxPoint x="630" y="400" as="targetPoint" />
          </mxGeometry>
        </mxCell>
        <mxCell id="XXfU96lnd1s2tMMeXdj5-22" style="edgeStyle=orthogonalEdgeStyle;rounded=0;orthogonalLoop=1;jettySize=auto;html=1;exitX=0.5;exitY=0.5;exitDx=0;exitDy=0;exitPerimeter=0;entryX=0.5;entryY=1;entryDx=0;entryDy=0;" edge="1" parent="1" source="d2eWooW74yrMKREjg4Wz-35" target="XXfU96lnd1s2tMMeXdj5-20">
          <mxGeometry relative="1" as="geometry">
            <Array as="points" />
            <mxPoint x="135" y="600" as="sourcePoint" />
            <mxPoint x="760" y="480" as="targetPoint" />
          </mxGeometry>
        </mxCell>
        <mxCell id="XXfU96lnd1s2tMMeXdj5-23" value="Ver todas las asistencias" style="ellipse;whiteSpace=wrap;html=1;" vertex="1" parent="1">
          <mxGeometry x="440" y="650" width="140" height="70" as="geometry" />
        </mxCell>
        <mxCell id="XXfU96lnd1s2tMMeXdj5-24" style="edgeStyle=orthogonalEdgeStyle;rounded=0;orthogonalLoop=1;jettySize=auto;html=1;exitX=0.5;exitY=0.5;exitDx=0;exitDy=0;exitPerimeter=0;" edge="1" parent="1" source="d2eWooW74yrMKREjg4Wz-35" target="XXfU96lnd1s2tMMeXdj5-23">
          <mxGeometry relative="1" as="geometry">
            <Array as="points" />
            <mxPoint x="135" y="600" as="sourcePoint" />
            <mxPoint x="280" y="695" as="targetPoint" />
          </mxGeometry>
        </mxCell>
        <mxCell id="XXfU96lnd1s2tMMeXdj5-25" style="edgeStyle=orthogonalEdgeStyle;rounded=0;orthogonalLoop=1;jettySize=auto;html=1;exitX=0.5;exitY=0.5;exitDx=0;exitDy=0;exitPerimeter=0;" edge="1" parent="1" source="d2eWooW74yrMKREjg4Wz-35" target="d2eWooW74yrMKREjg4Wz-41">
          <mxGeometry relative="1" as="geometry">
            <Array as="points" />
            <mxPoint x="135" y="600" as="sourcePoint" />
            <mxPoint x="510" y="660" as="targetPoint" />
          </mxGeometry>
        </mxCell>
      </root>
    </mxGraphModel>
  </diagram>
</mxfile>
